<svg height="296pt" viewBox="0.00 0.00 307.56 296.00" width="308pt" xmlns="http://www.w3.org/2000/svg" xmlns:xlink="http://www.w3.org/1999/xlink">
<g class="graph" id="graph0" transform="scale(1 1) rotate(0) translate(4 292)">
<title>G</title>
<polygon fill="#ffffff" points="-4,4 -4,-292 303.5557,-292 303.5557,4 -4,4" stroke="transparent"/>
<!-- 4669696824 -->
<g class="node" id="node1">
<title>4669696824</title>
<polygon fill="none" points="0,-243.5 0,-287.5 299.5557,-287.5 299.5557,-243.5 0,-243.5" stroke="#000000"/>
<text fill="#000000" font-family="Times,serif" font-size="14.00" text-anchor="middle" x="83.6191" y="-261.3">dense_1_input: InputLayer</text>
<polyline fill="none" points="167.2383,-243.5 167.2383,-287.5 " stroke="#000000"/>
<text fill="#000000" font-family="Times,serif" font-size="14.00" text-anchor="middle" x="195.0728" y="-272.3">input:</text>
<polyline fill="none" points="167.2383,-265.5 222.9072,-265.5 " stroke="#000000"/>
<text fill="#000000" font-family="Times,serif" font-size="14.00" text-anchor="middle" x="195.0728" y="-250.3">output:</text>
<polyline fill="none" points="222.9072,-243.5 222.9072,-287.5 " stroke="#000000"/>
<text fill="#000000" font-family="Times,serif" font-size="14.00" text-anchor="middle" x="261.2314" y="-272.3">(None, 10)</text>
<polyline fill="none" points="222.9072,-265.5 299.5557,-265.5 " stroke="#000000"/>
<text fill="#000000" font-family="Times,serif" font-size="14.00" text-anchor="middle" x="261.2314" y="-250.3">(None, 10)</text>
</g>
<!-- 4669696320 -->
<g class="node" id="node2">
<title>4669696320</title>
<polygon fill="none" points="31.4932,-162.5 31.4932,-206.5 268.0625,-206.5 268.0625,-162.5 31.4932,-162.5" stroke="#000000"/>
<text fill="#000000" font-family="Times,serif" font-size="14.00" text-anchor="middle" x="83.6191" y="-180.3">dense_1: Dense</text>
<polyline fill="none" points="135.7451,-162.5 135.7451,-206.5 " stroke="#000000"/>
<text fill="#000000" font-family="Times,serif" font-size="14.00" text-anchor="middle" x="163.5796" y="-191.3">input:</text>
<polyline fill="none" points="135.7451,-184.5 191.4141,-184.5 " stroke="#000000"/>
<text fill="#000000" font-family="Times,serif" font-size="14.00" text-anchor="middle" x="163.5796" y="-169.3">output:</text>
<polyline fill="none" points="191.4141,-162.5 191.4141,-206.5 " stroke="#000000"/>
<text fill="#000000" font-family="Times,serif" font-size="14.00" text-anchor="middle" x="229.7383" y="-191.3">(None, 10)</text>
<polyline fill="none" points="191.4141,-184.5 268.0625,-184.5 " stroke="#000000"/>
<text fill="#000000" font-family="Times,serif" font-size="14.00" text-anchor="middle" x="229.7383" y="-169.3">(None, 16)</text>
</g>
<!-- 4669696824&#45;&gt;4669696320 -->
<g class="edge" id="edge1">
<title>4669696824-&gt;4669696320</title>
<path d="M149.7778,-243.3664C149.7778,-235.1516 149.7778,-225.6579 149.7778,-216.7252" fill="none" stroke="#000000"/>
<polygon fill="#000000" points="153.2779,-216.6068 149.7778,-206.6068 146.2779,-216.6069 153.2779,-216.6068" stroke="#000000"/>
</g>
<!-- 4669884064 -->
<g class="node" id="node3">
<title>4669884064</title>
<polygon fill="none" points="31.4932,-81.5 31.4932,-125.5 268.0625,-125.5 268.0625,-81.5 31.4932,-81.5" stroke="#000000"/>
<text fill="#000000" font-family="Times,serif" font-size="14.00" text-anchor="middle" x="83.6191" y="-99.3">dense_2: Dense</text>
<polyline fill="none" points="135.7451,-81.5 135.7451,-125.5 " stroke="#000000"/>
<text fill="#000000" font-family="Times,serif" font-size="14.00" text-anchor="middle" x="163.5796" y="-110.3">input:</text>
<polyline fill="none" points="135.7451,-103.5 191.4141,-103.5 " stroke="#000000"/>
<text fill="#000000" font-family="Times,serif" font-size="14.00" text-anchor="middle" x="163.5796" y="-88.3">output:</text>
<polyline fill="none" points="191.4141,-81.5 191.4141,-125.5 " stroke="#000000"/>
<text fill="#000000" font-family="Times,serif" font-size="14.00" text-anchor="middle" x="229.7383" y="-110.3">(None, 16)</text>
<polyline fill="none" points="191.4141,-103.5 268.0625,-103.5 " stroke="#000000"/>
<text fill="#000000" font-family="Times,serif" font-size="14.00" text-anchor="middle" x="229.7383" y="-88.3">(None, 16)</text>
</g>
<!-- 4669696320&#45;&gt;4669884064 -->
<g class="edge" id="edge2">
<title>4669696320-&gt;4669884064</title>
<path d="M149.7778,-162.3664C149.7778,-154.1516 149.7778,-144.6579 149.7778,-135.7252" fill="none" stroke="#000000"/>
<polygon fill="#000000" points="153.2779,-135.6068 149.7778,-125.6068 146.2779,-135.6069 153.2779,-135.6068" stroke="#000000"/>
</g>
<!-- 4669882608 -->
<g class="node" id="node4">
<title>4669882608</title>
<polygon fill="none" points="31.4932,-.5 31.4932,-44.5 268.0625,-44.5 268.0625,-.5 31.4932,-.5" stroke="#000000"/>
<text fill="#000000" font-family="Times,serif" font-size="14.00" text-anchor="middle" x="83.6191" y="-18.3">dense_3: Dense</text>
<polyline fill="none" points="135.7451,-.5 135.7451,-44.5 " stroke="#000000"/>
<text fill="#000000" font-family="Times,serif" font-size="14.00" text-anchor="middle" x="163.5796" y="-29.3">input:</text>
<polyline fill="none" points="135.7451,-22.5 191.4141,-22.5 " stroke="#000000"/>
<text fill="#000000" font-family="Times,serif" font-size="14.00" text-anchor="middle" x="163.5796" y="-7.3">output:</text>
<polyline fill="none" points="191.4141,-.5 191.4141,-44.5 " stroke="#000000"/>
<text fill="#000000" font-family="Times,serif" font-size="14.00" text-anchor="middle" x="229.7383" y="-29.3">(None, 16)</text>
<polyline fill="none" points="191.4141,-22.5 268.0625,-22.5 " stroke="#000000"/>
<text fill="#000000" font-family="Times,serif" font-size="14.00" text-anchor="middle" x="229.7383" y="-7.3">(None, 1)</text>
</g>
<!-- 4669884064&#45;&gt;4669882608 -->
<g class="edge" id="edge3">
<title>4669884064-&gt;4669882608</title>
<path d="M149.7778,-81.3664C149.7778,-73.1516 149.7778,-63.6579 149.7778,-54.7252" fill="none" stroke="#000000"/>
<polygon fill="#000000" points="153.2779,-54.6068 149.7778,-44.6068 146.2779,-54.6069 153.2779,-54.6068" stroke="#000000"/>
</g>
</g>
</svg>